<?xml version="1.0" standalone="no"?>
<!DOCTYPE svg PUBLIC "-//W3C//DTD SVG 20010904//EN"
 "http://www.w3.org/TR/2001/REC-SVG-20010904/DTD/svg10.dtd">
<svg version="1.0" xmlns="http://www.w3.org/2000/svg"
 width="489.000000pt" height="510.000000pt" viewBox="0 0 489.000000 510.000000"
 preserveAspectRatio="xMidYMid meet">

<g transform="translate(0.000000,510.000000) scale(0.100000,-0.100000)"
fill="#000000" stroke="none">
<path d="M2284 4912 c-33 -21 -64 -41 -70 -43 -5 -2 -47 -29 -94 -60 -98 -64
-310 -200 -390 -249 -30 -19 -72 -48 -92 -64 l-38 -29 0 -597 0 -596 32 -30
c18 -17 52 -45 76 -63 l42 -33 0 -429 c0 -288 3 -429 10 -429 6 0 63 48 128
107 64 58 136 120 160 136 23 17 42 34 42 38 0 4 -12 31 -27 61 -53 104 -39
242 32 326 20 23 33 42 28 42 -18 1 89 60 136 76 111 36 266 -20 330 -118 49
-74 64 -127 59 -211 -5 -104 -52 -187 -141 -250 -17 -12 -17 -15 4 -61 17 -40
22 -75 26 -195 3 -80 10 -154 14 -163 8 -14 31 -17 173 -20 l165 -3 35 -34
c46 -45 61 -110 41 -177 -14 -47 -13 -49 16 -103 17 -31 34 -60 39 -66 4 -5
24 -43 45 -82 20 -40 39 -73 41 -73 6 0 2 2849 -4 2906 -4 37 -9 42 -98 99
-52 33 -100 65 -107 70 -29 25 -522 348 -537 352 -8 2 -42 -13 -76 -35z m-256
-789 l3 -131 -73 -4 c-111 -5 -103 -15 -105 130 -1 69 1 130 4 135 2 4 41 6
86 5 l82 -3 3 -132z m420 1 l3 -132 -83 -4 c-46 -3 -87 -1 -93 4 -7 6 -10 142
-5 266 0 1 39 1 88 0 l87 -3 3 -131z m397 127 c3 -5 6 -66 8 -135 l2 -125 -80
-3 c-44 -2 -83 -2 -87 0 -10 4 -11 256 -1 265 10 11 151 8 158 -2z m-820 -646
l0 -130 -83 0 -83 0 0 125 c-1 69 -1 129 0 133 1 4 38 7 84 5 l82 -3 0 -130z
m417 123 c2 -7 4 -67 3 -133 l0 -120 -88 0 -88 0 0 125 c-1 69 -1 128 0 133 2
13 168 8 173 -5z m408 -113 c0 -69 0 -128 0 -132 0 -5 -37 -8 -82 -8 l-83 0
-3 119 c-1 66 0 126 2 133 4 9 29 13 86 13 l80 0 0 -125z"/>
<path d="M3223 4018 c-8 -14 -5 -2616 3 -2630 3 -4 38 -5 78 -1 71 6 75 5 118
-26 42 -30 45 -31 83 -17 74 26 111 36 129 36 17 0 548 130 611 150 17 5 48
12 70 15 22 3 43 9 46 13 4 4 9 559 12 1234 5 1083 4 1227 -10 1232 -8 3 -266
6 -573 6 -436 0 -561 -3 -567 -12z m430 -285 c2 -5 2 -65 -1 -135 l-4 -127
-79 -3 c-59 -2 -80 0 -84 10 -3 8 -5 70 -5 138 l0 124 84 0 c47 0 87 -3 89 -7z
m452 -128 l0 -130 -90 0 -90 0 -3 119 c-1 66 0 126 3 133 3 11 26 13 92 11
l88 -3 0 -130z m-451 -397 c-1 -10 -2 -70 -3 -133 l-1 -115 -85 0 -85 0 0 128
c0 71 3 132 7 136 4 4 43 5 88 4 69 -3 80 -5 79 -20z m451 0 c3 -13 5 -72 3
-133 l-3 -110 -92 -3 -93 -3 0 129 c0 71 3 132 7 135 3 4 44 7 89 7 78 0 84
-1 89 -22z m-450 -635 l-1 -128 -84 0 -85 0 -6 120 c-3 66 -4 123 -2 128 2 4
43 7 91 7 l87 0 0 -127z m450 -3 l0 -125 -92 -3 -93 -3 0 131 0 131 93 -3 92
-3 0 -125z"/>
<path d="M734 3405 c-137 -102 -286 -214 -331 -250 l-83 -66 0 -1309 c0 -1105
2 -1310 14 -1310 7 0 33 7 57 16 53 18 97 30 349 94 181 46 324 85 360 98 8 3
20 6 25 8 92 23 255 68 270 74 11 5 54 17 95 26 41 10 78 21 82 24 3 3 -16 34
-43 70 -100 131 -149 267 -156 430 -12 260 46 406 238 607 l49 51 0 559 0 559
-27 26 c-25 22 -336 254 -403 300 -14 10 -72 53 -129 98 -57 44 -107 80 -111
80 -3 0 -118 -83 -256 -185z m119 -647 l-2 -143 -121 -3 -120 -3 0 150 0 150
108 3 c59 2 114 0 122 -4 13 -5 15 -28 13 -150z m510 2 l-3 -145 -115 -3 -115
-3 0 151 0 151 118 -3 117 -3 -2 -145z m-517 -383 c3 -2 5 -67 6 -143 l0 -139
-121 -3 -121 -3 0 145 c0 87 4 146 10 148 15 5 221 1 226 -5z m516 -132 c2
-75 2 -140 0 -145 -2 -6 -52 -10 -118 -10 l-114 0 0 145 0 145 114 0 115 0 3
-135z"/>
<path d="M2260 2918 c-68 -35 -85 -66 -85 -153 0 -59 4 -79 21 -102 33 -44 91
-73 150 -73 121 0 205 139 151 252 -20 42 -42 63 -90 83 -51 21 -95 19 -147
-7z"/>
<path d="M2175 2478 c-71 -40 -288 -231 -346 -305 -34 -42 -36 -75 -14 -178 8
-38 23 -116 34 -173 23 -121 39 -151 81 -153 17 -1 35 -2 41 -3 7 -1 20 10 30
24 17 23 18 33 9 110 -29 233 -29 244 -13 270 26 41 89 100 107 100 14 0 16
-27 16 -257 0 -272 6 -316 44 -358 45 -49 87 -55 361 -55 190 0 255 -3 263
-12 5 -7 54 -98 107 -203 53 -104 108 -205 121 -222 33 -43 79 -44 160 -3 32
16 66 30 74 31 8 0 38 13 65 27 45 24 50 31 53 64 6 75 -53 96 -163 58 -34
-12 -62 -17 -68 -11 -11 11 -102 170 -134 236 -14 28 -28 52 -32 55 -3 3 -26
45 -51 93 -25 49 -53 96 -64 105 -15 14 -49 18 -215 22 l-196 5 -3 38 c-2 20
-2 37 0 38 2 0 86 3 188 5 174 5 186 6 203 27 22 25 16 76 -11 92 -9 5 -98 12
-197 15 l-180 5 -6 195 c-3 107 -9 206 -13 220 -12 35 -55 80 -93 96 -39 17
-130 18 -158 2z"/>
<path d="M1704 1838 c-85 -92 -151 -204 -185 -318 -18 -59 -23 -98 -22 -185 0
-99 4 -118 32 -190 54 -139 130 -242 247 -332 52 -40 185 -91 272 -103 241
-35 463 57 625 258 9 12 17 24 17 27 0 2 14 27 30 55 17 28 28 55 25 60 -3 4
-1 10 5 12 11 3 40 126 40 171 0 34 -27 90 -40 82 -6 -4 -10 -1 -10 4 0 6 -11
11 -24 11 -23 0 -25 -4 -31 -67 -13 -148 -71 -270 -171 -361 -122 -112 -250
-159 -406 -148 -48 3 -106 12 -129 20 -24 8 -47 12 -52 9 -6 -3 -7 -1 -3 5 4
7 1 12 -7 12 -13 0 -135 86 -161 113 -60 63 -116 170 -136 257 -13 60 -13 207
1 271 16 74 51 147 98 203 23 26 42 53 42 60 4 33 -10 106 -19 106 -5 0 -22
-15 -38 -32z"/>
<path d="M4325 1345 c-17 -7 -55 -24 -85 -38 -30 -14 -95 -41 -145 -60 -49
-19 -191 -78 -315 -132 -205 -89 -425 -180 -618 -256 -40 -16 -96 -40 -125
-53 -64 -30 -493 -211 -544 -230 -46 -17 -161 -65 -225 -95 -26 -11 -49 -21
-52 -21 -3 0 -52 -22 -109 -49 -57 -26 -121 -54 -143 -61 -21 -7 -43 -16 -49
-19 -5 -4 -43 -20 -82 -35 -40 -15 -73 -29 -73 -31 0 -5 2602 5 2611 11 13 8
7 1084 -6 1083 -5 0 -24 -7 -40 -14z"/>
</g>
</svg>
